<svg xmlns="http://www.w3.org/2000/svg" viewBox="0 0 512 512"><path fill="#fff" d="M205,119L272,115L342,116L374,121C380,123,387,127,390,133L397,157C397,168,396,179,391,189L379,199L392,210L397,226L391,227L367,227L362,225L359,217L352,211L330,209L280,208L232,210L220,215L215,230C214,240,214,250,218,259L226,267L251,269L287,270L342,269L357,264L361,253L367,250L391,250L397,252L393,267L382,277L392,287L397,303L391,305L367,305L362,303L358,291L346,287L288,285L237,287L223,290C218,293,216,299,215,305L217,334L225,344L245,346L304,347L343,346L357,341L361,329L367,328L391,328L397,329C396,337,394,346,388,351L364,359L294,362L215,359L193,351C186,347,182,339,181,331L180,306L188,286L200,278L186,267C180,259,179,249,179,239C179,229,181,217,188,209L197,201L183,190L179,169L154,169L154,363L116,363L116,115L154,115L154,153L179,154C179,144,180,132,188,125L205,119ZM264,130L226,133L216,143L215,171C216,177,218,184,225,187L250,191L302,192L348,188L358,180C362,173,361,164,361,156C361,149,360,142,355,137L340,132L264,130Z"/></svg>